<?xml version="1.0" encoding="iso-8859-1"?>
<!-- Uploaded to: SVG Repo, www.svgrepo.com, Generator: SVG Repo Mixer Tools -->
<svg fill="#FFFFFF" height="800px" width="800px" version="1.1" id="Layer_1" xmlns="http://www.w3.org/2000/svg" xmlns:xlink="http://www.w3.org/1999/xlink" 
	 viewBox="0 0 512.129 512.129" xml:space="preserve">
<g transform="translate(-1)">
	<g>
		<g>
			<path d="M191.249,177.229l60.988,38.298c0.299,0.188,0.512,0.461,0.785,0.683l90.888,56.875
				c8.243,5.188,18.005,6.818,27.494,4.668c9.489-2.167,17.562-7.902,22.733-16.128l8.235-13.363
				c-15.787-6.895-18.295-7.398-19.209-7.552c-2.825-1.015-12.996-6.767-26.914-15.002l0.512-0.512c3.336-3.337,3.336-8.73,0-12.066
				c-3.328-3.337-8.73-3.337-12.066,0l-3.55,3.558c-7.006-4.224-14.481-8.755-22.161-13.449l1.647-1.647
				c3.337-3.328,3.337-8.73,0-12.066c-3.336-3.328-8.73-3.328-12.066,0l-4.531,4.531c-5.615-3.456-11.221-6.929-16.717-10.342
				l1.451-1.451c3.328-3.337,3.328-8.738,0-12.066c-3.336-3.336-8.738-3.336-12.066,0l-4.25,4.241
				c-22.409-14.046-40.704-25.805-45.73-29.568c-19.866-14.942-50.79,6.238-54.793,9.122c-2.731,2.295-5.367,4.42-7.962,6.485
				l25.651,16.051C190.173,176.734,190.737,176.905,191.249,177.229z"/>
			<path d="M35.265,227.43c16.154,0,30.677-11.247,34.133-26.308V177.8c-2.509-10.863-7.202-22.229-17.553-24.653
				c-12.228-2.893-21.734,9.805-23.151,11.827c-10.624,17.63-17.562,34.594-21.854,50.517l7.561,5.035
				C19.607,223.812,28.806,227.43,35.265,227.43z"/>
			<path d="M180.332,214.63c0,16.469,13.397,29.867,29.867,29.867c11.93,0,22.613-7.245,27.307-17.869l-49.929-31.249
				C182.926,200.738,180.332,207.496,180.332,214.63z"/>
			<path d="M478.885,280.513l-3.934-1.493c-11.921-4.523-24.09-9.293-35.959-14.438c-0.077,0.154-0.171,0.333-0.247,0.478
				c-1.698,3.2-3.157,5.965-4.642,8.064l0.154,0.094c-4.224,6.793-6.46,14.566-6.46,22.477c0,9.293,3.209,18.202,8.823,25.6h-20.053
				c-3.797-7.945-5.837-16.666-5.837-25.6c0-11.102,3.132-21.999,9.045-31.488c0.094-0.154,0.179-0.29,0.282-0.435
				c0.512-0.879,1.715-3.14,3.294-6.118c-1.835-0.836-3.584-1.63-5.248-2.381l-9.472,15.36c-7.629,12.16-19.49,20.574-33.425,23.757
				c-3.994,0.913-8.021,1.365-12.023,1.365c-9.941,0-19.703-2.79-28.331-8.209l-82.927-51.891
				c-7.842,15.454-23.834,25.907-41.728,25.907c-25.873,0-46.933-21.052-46.933-46.933c0-10.402,3.499-20.267,9.754-28.365
				l-23.672-14.805C115.8,195.12,96.379,197.518,86.463,195.82v6.212c0,0.563-0.051,1.135-0.162,1.69
				c-4.787,23.629-26.24,40.772-51.038,40.772c-10.283,0-22.554-4.847-30.157-9.651l-2.074-1.382
				c-6.852,43.46,5.239,77.133,12.348,92.254c-3.482,3.132-5.717,7.612-5.717,12.646v17.058c0,9.412,7.663,17.067,17.067,17.067
				l432.956-0.009c0.188,0.009,1.152,0.068,2.714,0.068c7.023,0,25.907-1.178,38.622-13.013c7.97-7.424,12.049-17.399,12.109-29.653
				v-0.026v-0.026C513.129,307.112,500.329,288.68,478.885,280.513z M274.196,287.161c20.608,0,37.845,14.686,41.805,34.133h-17.664
				c-3.524-9.933-13.013-17.067-24.141-17.067c-11.119,0-20.617,7.134-24.141,17.067h-17.664
				C236.359,301.847,253.597,287.161,274.196,287.161z M112.063,261.561c28.237,0,51.2,22.972,51.2,51.2
				c0,2.876-0.299,5.717-0.785,8.533h-17.391c0.742-2.799,1.109-5.649,1.109-8.533c0-18.825-15.309-34.133-34.133-34.133
				s-34.133,15.309-34.133,34.133c0,2.884,0.367,5.734,1.109,8.533H61.656c-0.486-2.816-0.794-5.658-0.794-8.533
				C60.863,284.532,83.835,261.561,112.063,261.561z M489.432,346.996c-10.086,9.446-28.459,8.465-29.193,8.431l-433.51-0.009
				v-17.058h0.444h45.824h78.131h88.934h68.267h124.049h62.456C493.759,341.774,491.967,344.633,489.432,346.996z"/>
		</g>
	</g>
</g>
</svg>