<?xml version="1.0" encoding="iso-8859-1"?>
<!-- Uploaded to: SVG Repo, www.svgrepo.com, Generator: SVG Repo Mixer Tools -->
<svg fill="#FFFFFF" height="800px" width="800px" version="1.1" id="Layer_1" xmlns="http://www.w3.org/2000/svg" xmlns:xlink="http://www.w3.org/1999/xlink" 
	 viewBox="0 0 501.334 501.334" xml:space="preserve">
<g>
	<g>
		<path d="M479.467,356.267c-8.533-98.133-80-206.933-172.8-238.933c10.667-12.8,16-27.733,16-45.867C322.667,32,290.667,0,251.2,0
			s-71.467,32-71.467,71.467c0,17.067,6.4,33.067,16,44.8c-93.867,32-165.333,140.8-173.867,240c-1.067,2.133-1.067,4.267-1.067,6.4
			V480c0,11.733,9.6,21.333,21.333,21.333H459.2c11.733,0,21.333-9.6,21.333-21.333V362.667
			C480.534,360.533,480.534,358.4,479.467,356.267z M251.201,41.6c17.067,0,29.867,13.867,29.867,29.867
			c0,17.067-13.867,29.867-29.867,29.867c-17.067,0-29.867-13.867-29.867-29.867C221.334,54.4,235.201,41.6,251.201,41.6z
			 M251.201,149.333c87.467,0,167.467,99.2,184.533,192H66.667C84.8,249.6,163.734,149.333,251.201,149.333z M154.134,459.733
			H63.467V384h90.667V459.733z M304.534,459.733H196.8V384h107.733V459.733z M438.934,459.733h-91.733V384h91.733V459.733z"/>
	</g>
</g>
</svg>